# xmcd
#
# Track frame offsets: 
#        187
#        14205
#        26362
#        39902
#        56132
#        78137
#        97667
#        111040
#        126695
#        148645
#
# Disc length: 2216 seconds
#
# Revision: 3
# Processed by: cddbd v1.5.1PL2 Copyright (c) Steve Scherf et al.
# Submitted via: ExactAudioCopy v0.95a4
#
DISCID=7e08a60a
DTITLE=Jo-El Sonnier - Have A Little Faith
DYEAR=1989
DGENRE=Country
TTITLE0=The Scene Of The Crime
TTITLE1=If Your Heart Should Ever Roll This Way Again
TTITLE2=Ooh, Ooh, Ooh
TTITLE3=Have A Little Faith In Me
TTITLE4=I'll Never Get Over You
TTITLE5=The Hurt In My Heart
TTITLE6=Solid Gold-Plated Fool
TTITLE7=Blue, Blue, Blue (Blue, Blue)
TTITLE8=Walls
TTITLE9=Evangeline Special
EXTD=more info - MillenniumMusicProjectFormat - SYNTAX=SongTitle{Subtit
EXTD=le}[miscInfo](Lyricist;Composer;Date,Artist,Location,State,Countr
EXTD=y)
EXTT0=
EXTT1=
EXTT2=
EXTT3=
EXTT4=
EXTT5=
EXTT6=
EXTT7=
EXTT8=
EXTT9=
PLAYORDER=
